<?xml version="1.0" encoding="UTF-8" standalone="no"?>
<!-- Created with Inkscape (http://www.inkscape.org/) -->

<svg
   width="60.222286mm"
   height="8.4666672mm"
   viewBox="0 0 60.222286 8.4666672"
   version="1.1"
   id="svg1"
   xml:space="preserve"
   xmlns="http://www.w3.org/2000/svg"
   xmlns:svg="http://www.w3.org/2000/svg"><defs
     id="defs1" /><g
     id="layer1"
     transform="translate(-39.298144,-57.195972)"><path
       d="m 42.69771,63.518585 v -2.294014 l 2.045266,-3.823358 h -1.474065 l -1.188466,2.487486 -1.289807,-2.487486 h -1.492491 l 2.118969,3.804932 v 2.31244 z m 3.298221,-0.884439 c -0.72782,0 -1.096336,-0.460646 -1.096336,-1.381937 0,-0.921291 0.368516,-1.372723 1.096336,-1.372723 0.72782,0 1.096336,0.451432 1.096336,1.372723 0,0.921291 -0.368516,1.381937 -1.096336,1.381937 z m 0,1.004207 c 1.409575,0 2.303227,-0.94893 2.303227,-2.386144 0,-1.446426 -0.884439,-2.386143 -2.303227,-2.386143 -1.437214,0 -2.330866,0.94893 -2.330866,2.386143 0,1.409576 0.866013,2.386144 2.330866,2.386144 z M 52.81348,63.518585 V 58.985834 H 51.625015 V 61.6023 c 0,0.598839 -0.322452,1.031846 -0.930504,1.031846 -0.50671,0 -0.764672,-0.276387 -0.764672,-0.847588 v -2.800724 h -1.197678 v 2.984982 c 0,0.994995 0.635691,1.667537 1.538556,1.667537 0.626478,0 1.096336,-0.239536 1.409575,-0.755459 v 0.635691 z m 1.722814,0 V 61.16008 c 0,-0.72782 0.359303,-1.096336 1.096336,-1.096336 0.110555,0 0.22111,0.0092 0.331665,0.02764 v -1.225317 h -0.156619 c -0.488285,0 -0.94893,0.05528 -1.345085,0.663329 v -0.543561 h -1.123975 v 4.532751 z"
       id="text49"
       style="font-size:9.21291px;font-family:Coolvetica;-inkscape-font-specification:Coolvetica;fill:#6c3794;stroke-width:26.8709"
       aria-label="Your" /><path
       d="m 60.884964,61.415482 c -0.175045,0.764672 -0.63569,1.197678 -1.391149,1.197678 -0.994994,0 -1.492491,-0.801523 -1.492491,-2.15582 0,-1.335872 0.497497,-2.155821 1.556981,-2.155821 0.608052,0 1.151614,0.414581 1.326659,1.105549 h 1.280595 c -0.119768,-1.23453 -1.087123,-2.211099 -2.616466,-2.211099 -1.750453,0 -2.84679,1.262169 -2.84679,3.335074 0,2.100543 1.225317,3.196879 2.828364,3.196879 1.418788,0 2.37693,-0.921291 2.634892,-2.31244 z m 3.795727,1.216104 c -0.72782,0 -1.096336,-0.460645 -1.096336,-1.381936 0,-0.921291 0.368516,-1.372724 1.096336,-1.372724 0.72782,0 1.096336,0.451433 1.096336,1.372724 0,0.921291 -0.368516,1.381936 -1.096336,1.381936 z m 0,1.004207 c 1.409575,0 2.303228,-0.948929 2.303228,-2.386143 0,-1.446427 -0.88444,-2.386144 -2.303228,-2.386144 -1.437214,0 -2.330866,0.94893 -2.330866,2.386144 0,1.409575 0.866013,2.386143 2.330866,2.386143 z m 9.222118,-0.119767 v -3.141603 c 0,-0.847587 -0.63569,-1.510917 -1.547768,-1.510917 -0.571201,0 -0.976569,0.22111 -1.225317,0.718607 -0.350091,-0.525136 -0.644904,-0.718607 -1.262169,-0.718607 -0.598839,0 -1.022633,0.184258 -1.326659,0.783097 v -0.663329 h -1.123975 v 4.532752 h 1.197678 v -2.75466 c 0,-0.589627 0.248749,-0.88444 0.72782,-0.88444 0.525136,0 0.718607,0.184258 0.718607,0.912078 v 2.727022 h 1.197678 V 60.80743 c 0,-0.552774 0.322452,-0.967355 0.764672,-0.967355 0.423794,0 0.709394,0.386942 0.709394,0.930503 v 2.745448 z m 2.598038,-0.902866 c -0.663329,0 -1.004207,-0.488284 -1.004207,-1.474065 0,-0.764672 0.44222,-1.29902 1.01342,-1.29902 0.598839,0 1.022633,0.561987 1.022633,1.372723 0,0.930504 -0.331665,1.400362 -1.031846,1.400362 z m -0.958142,3.049474 v -2.736235 c 0.340877,0.479072 0.783097,0.709394 1.345085,0.709394 1.170039,0 1.861007,-0.967355 1.861007,-2.340079 0,-1.529343 -0.819949,-2.432208 -1.962349,-2.432208 -0.552775,0 -0.976569,0.211897 -1.262169,0.672543 l -0.0092,-0.552775 h -1.151614 v 6.67936 z m 6.384554,-3.869423 c -0.0092,0.534349 -0.469859,0.985782 -1.087124,0.985782 -0.377729,0 -0.580413,-0.165833 -0.580413,-0.50671 0,-0.386942 0.22111,-0.580414 0.902865,-0.709394 0.44222,-0.08292 0.654117,-0.147407 0.773885,-0.267175 z m 1.206891,1.722815 v -2.865215 c 0,-1.142401 -0.497497,-1.787305 -1.934711,-1.787305 -1.45564,0 -1.971563,0.654117 -1.989989,1.593834 h 1.114762 c 0.05528,-0.405369 0.276388,-0.672543 0.819949,-0.672543 0.469859,0 0.764672,0.175045 0.764672,0.469859 0,0.313238 -0.165832,0.433006 -0.764672,0.515922 -1.206891,0.165833 -2.082117,0.313239 -2.082117,1.621473 0,0.737032 0.479071,1.243742 1.510917,1.243742 0.608052,0 1.087123,-0.211897 1.372724,-0.525135 0.0092,0.138193 0.03685,0.294813 0.0737,0.405368 z m 4.634094,0 v -3.141603 c 0,-0.985781 -0.635691,-1.510917 -1.501705,-1.510917 -0.72782,0 -1.188465,0.276387 -1.464852,0.783097 v -0.663329 h -1.142401 v 4.532752 h 1.197678 v -2.598041 c 0,-0.690968 0.304026,-1.041059 0.930504,-1.041059 0.5712,0 0.773884,0.193471 0.773884,0.893652 v 2.745448 z m 3.408779,0.138193 c 0,0.598839 -0.396155,0.976569 -0.829162,0.976569 -0.626478,0 -0.939717,-0.331665 -0.939717,-0.866014 h -1.114762 c 0,1.17004 0.672542,1.89786 1.999201,1.89786 1.160827,0 2.082118,-0.746246 2.082118,-2.026841 v -4.652519 h -1.197678 v 2.763873 c 0,0.488284 -0.37773,0.847588 -0.921291,0.847588 -0.50671,0 -0.764672,-0.285601 -0.764672,-0.847588 v -2.763873 h -1.197678 v 2.938918 c 0,0.994994 0.709394,1.639898 1.658324,1.639898 0.561987,0 1.059484,-0.239536 1.225317,-0.644904 z"
       id="text50"
       style="font-size:9.21291px;font-family:Coolvetica;-inkscape-font-specification:Coolvetica;fill:#f58220;stroke-width:26.8709"
       aria-label="Company" /><g
       id="g53"
       transform="matrix(0.71829725,0,0,0.74737776,-133.36122,-15.653239)"><path
         id="path50"
         style="opacity:1;fill:#6c3794;fill-opacity:1;stroke-width:9.26042"
         d="m 319.69261,101.86872 c -0.61321,0.0185 -1.31216,0.40558 -2.03347,1.51825 -2.19829,3.39098 0.28103,2.90532 0.79375,2.61379 1.02131,-0.58073 1.52962,-0.58062 2.55075,0 0.51272,0.29153 2.99204,0.77719 0.79375,-2.61379 -0.72131,-1.11267 -1.42026,-1.4998 -2.03347,-1.51825 h -5.2e-4 c -0.01,-3.1e-4 -0.0196,-10e-5 -0.0294,0 -0.004,1e-5 -0.008,3e-5 -0.0114,0 -0.01,-10e-5 -0.0199,-3.1e-4 -0.03,0 z" /><ellipse
         style="opacity:1;fill:#6c3794;fill-opacity:1;stroke-width:9.53093"
         id="ellipse50"
         cx="291.98438"
         cy="160.99512"
         rx="1.0892493"
         ry="1.77003"
         transform="rotate(-11.544888)" /><ellipse
         style="opacity:1;fill:#6c3794;fill-opacity:1;stroke-width:9.53093"
         id="ellipse51"
         cx="-334.53479"
         cy="33.017113"
         rx="1.0892493"
         ry="1.77003"
         transform="matrix(-0.97976821,-0.20013559,-0.20013559,0.97976821,0,0)" /><ellipse
         style="opacity:1;fill:#6c3794;fill-opacity:1;stroke-width:8.82002"
         id="ellipse52"
         cx="251.05908"
         cy="217.56274"
         rx="1.0080023"
         ry="1.6380037"
         transform="rotate(-23.12864)" /><ellipse
         style="opacity:1;fill:#6c3794;fill-opacity:1;stroke-width:8.82002"
         id="ellipse53"
         cx="-336.97076"
         cy="-33.600735"
         rx="1.0080023"
         ry="1.6380037"
         transform="matrix(-0.91962527,-0.39279685,-0.39279685,0.91962527,0,0)" /></g></g></svg>
