<?xml version="1.0" encoding="UTF-8" standalone="no"?>
<!-- Created with Inkscape (http://www.inkscape.org/) -->

<svg
   width="7.4083333mm"
   height="7.4083295mm"
   viewBox="0 0 7.4083333 7.4083295"
   version="1.1"
   id="svg1"
   xml:space="preserve"
   xmlns="http://www.w3.org/2000/svg"
   xmlns:svg="http://www.w3.org/2000/svg"><defs
     id="defs1" /><g
     id="layer1"
     transform="translate(-298.00189,-53.726057)"><g
       id="g41"
       transform="matrix(0.82281546,0,0,0.85612742,37.021054,-29.79223)"
       style="fill:#ffffff"><path
         id="path34"
         style="opacity:1;fill:#ffffff;fill-opacity:1;stroke-width:9.26042"
         d="m 321.66306,101.86872 c -0.61321,0.0185 -1.31216,0.40558 -2.03347,1.51825 -2.19829,3.39098 0.28103,2.90532 0.79375,2.61379 1.02131,-0.58073 1.52962,-0.58062 2.55075,0 0.51272,0.29153 2.99204,0.77719 0.79375,-2.61379 -0.72131,-1.11267 -1.42026,-1.4998 -2.03347,-1.51825 h -5.2e-4 c -0.01,-3.1e-4 -0.0196,-10e-5 -0.0294,0 -0.004,1e-5 -0.008,3e-5 -0.0114,0 -0.01,-10e-5 -0.0199,-3.1e-4 -0.03,0 z" /><ellipse
         style="opacity:1;fill:#ffffff;fill-opacity:1;stroke-width:9.53093"
         id="ellipse38"
         cx="293.91498"
         cy="161.38948"
         rx="1.0892493"
         ry="1.77003"
         transform="rotate(-11.544888)" /><ellipse
         style="opacity:1;fill:#ffffff;fill-opacity:1;stroke-width:9.53093"
         id="ellipse39"
         cx="-336.46539"
         cy="32.622753"
         rx="1.0892493"
         ry="1.77003"
         transform="matrix(-0.97976821,-0.20013559,-0.20013559,0.97976821,0,0)" /><ellipse
         style="opacity:1;fill:#ffffff;fill-opacity:1;stroke-width:8.82002"
         id="ellipse40"
         cx="252.87115"
         cy="218.33673"
         rx="1.0080023"
         ry="1.6380037"
         transform="rotate(-23.12864)" /><ellipse
         style="opacity:1;fill:#ffffff;fill-opacity:1;stroke-width:8.82002"
         id="ellipse41"
         cx="-338.78284"
         cy="-34.374722"
         rx="1.0080023"
         ry="1.6380037"
         transform="matrix(-0.91962527,-0.39279685,-0.39279685,0.91962527,0,0)" /></g></g></svg>
